# xmcd
# 
# Track frame offsets:
#   150
#   14393
#   34128
#   51256
#   71474
#   87451
#   106797
#   125900
#   143147
#   161303
#   179084
#   193677
#   213905
#   233244
#   248884
#   280622
# 
# Disc length: 3756 seconds
# 
# Revision: 5
# Processed by: cddbd v1.5.2PL0 Copyright (c) Steve Scherf et al.
# Submitted via: Synapstar 1.0 
# 
DISCID=e50eaa10
DTITLE=Various Artist - CB60338
DYEAR=2005
DGENRE=Country
TTITLE0=Hot Apple Pie - Hillbillies
TTITLE1=Alan Jackson - Talkin' Song Repair Blues
TTITLE2=Keith Urban - Making Memories Of Us
TTITLE3=LeAnn Rimes - Probably Wouldn't Be This Way
TTITLE4=Rascal Flatts - Fast Cars And Freedom
TTITLE5=Reba McEntire - My Sister
TTITLE6=Van Zant - Help Somebody
TTITLE7=Jamie O'Neal - Somebody's Hero
TTITLE8=George Canyon - My Name
TTITLE9=Blue County - That Summer Song
TTITLE10=Miranda Lambert - Kerosene
TTITLE11=George Strait - You'll Be There
TTITLE12=Rebecca Lynn Howard - No One'll Ever Love Me
TTITLE13=Steve Holly - Go Home
TTITLE14=Shooter Jennings - 4th Of July
TTITLE15=DO NOT RECORD - THIS TRACK
EXTD=
EXTT0=
EXTT1=
EXTT2=
EXTT3=
EXTT4=
EXTT5=
EXTT6=
EXTT7=
EXTT8=
EXTT9=
EXTT10=
EXTT11=
EXTT12=
EXTT13=
EXTT14=
EXTT15=
PLAYORDER=
